{"glyphs":{"0":{"ha":822,"x_min":0,"x_max":0,"o":"m 46 492 b 411 1000 46 725 119 1000 b 776 492 703 1000 776 725 b 411 -17 776 258 703 -17 b 46 492 119 -17 46 258 m 254 492 b 411 175 254 389 261 175 b 568 492 561 175 568 389 b 411 808 568 594 561 808 b 254 492 261 808 254 594 "},"1":{"ha":822,"x_min":0,"x_max":0,"o":"m 400 750 l 203 576 l 85 713 l 406 983 l 600 983 l 600 0 l 400 0 "},"2":{"ha":822,"x_min":0,"x_max":0,"o":"m 68 221 l 450 564 b 538 701 489 600 538 642 b 417 808 538 768 481 808 b 289 683 340 808 294 754 l 81 699 b 428 1000 93 901 235 1000 b 746 704 607 1000 746 901 b 617 440 746 578 692 506 l 318 183 l 754 183 l 754 0 l 68 0 "},"3":{"ha":822,"x_min":0,"x_max":0,"o":"m 300 596 l 368 596 b 526 706 444 596 526 613 b 404 808 526 765 472 808 b 282 717 339 808 294 768 l 53 764 b 403 1000 96 935 236 1000 b 735 726 578 1000 735 915 b 567 511 735 618 675 533 l 567 507 b 751 278 685 492 751 392 b 397 -17 751 81 590 -17 b 44 238 222 -17 85 61 l 264 289 b 410 175 278 219 321 175 b 543 301 500 175 543 228 b 349 415 543 413 442 415 l 300 415 "},"4":{"ha":822,"x_min":0,"x_max":0,"o":"m 463 197 l 33 197 l 33 372 l 435 983 l 663 983 l 663 372 l 789 372 l 789 197 l 663 197 l 663 0 l 463 0 m 463 711 l 460 711 l 242 372 l 463 372 "},"5":{"ha":822,"x_min":0,"x_max":0,"o":"m 718 800 l 328 800 l 324 649 b 411 660 347 657 374 660 b 751 335 610 660 751 536 b 376 -17 751 113 592 -17 b 44 235 207 -17 88 68 l 263 285 b 397 167 274 214 325 167 b 543 314 486 167 543 229 b 317 476 543 443 425 476 b 113 440 249 476 178 463 l 124 983 l 718 983 "},"6":{"ha":822,"x_min":0,"x_max":0,"o":"m 399 632 b 467 642 421 638 443 642 b 775 321 651 642 775 500 b 408 -17 775 118 614 -17 b 42 321 203 -17 42 118 b 160 647 42 463 97 549 l 375 983 l 629 983 m 567 329 b 408 483 567 418 501 483 b 250 329 315 483 250 418 b 408 175 250 240 315 175 b 567 329 501 175 567 240 "},"7":{"ha":822,"x_min":0,"x_max":0,"o":"m 538 792 l 51 792 l 51 983 l 771 983 l 771 800 l 378 0 l 135 0 "},"8":{"ha":822,"x_min":0,"x_max":0,"o":"m 82 729 b 411 1000 82 910 231 1000 b 740 729 592 1000 740 910 b 574 511 740 622 679 542 l 574 508 b 757 269 692 476 757 392 b 411 -17 757 79 593 -17 b 65 269 229 -17 65 79 b 249 508 65 392 131 476 l 249 511 b 82 729 143 542 82 622 m 290 700 b 411 590 290 639 339 590 b 532 700 483 590 532 639 b 411 808 532 760 483 808 b 290 700 339 808 290 760 m 274 299 b 411 175 274 231 329 175 b 549 299 493 175 549 231 b 411 424 549 368 493 424 b 274 299 329 424 274 368 "},"9":{"ha":822,"x_min":0,"x_max":0,"o":"m 424 351 b 356 342 401 346 379 342 b 47 663 171 342 47 483 b 414 1000 47 865 208 1000 b 781 663 619 1000 781 865 b 663 336 781 521 725 435 l 447 0 l 193 0 m 256 654 b 414 500 256 565 321 500 b 572 654 507 500 572 565 b 414 808 572 743 507 808 b 256 654 321 808 256 743 "}," ":{"ha":411,"x_min":0,"x_max":0,"o":""},"!":{"ha":617,"x_min":0,"x_max":0,"o":"m 413 325 l 204 325 l 204 983 l 413 983 m 181 119 b 308 247 181 190 238 247 b 436 119 379 247 436 190 b 308 -8 436 49 379 -8 b 181 119 238 -8 181 49 "},"\"":{"ha":722,"x_min":0,"x_max":0,"o":"m 435 983 l 610 983 l 610 592 l 435 592 m 113 983 l 288 983 l 288 592 l 113 592 "},"#":{"ha":822,"x_min":0,"x_max":0,"o":"m 179 279 l 63 279 l 63 404 l 196 404 l 219 579 l 103 579 l 103 704 l 236 704 l 275 983 l 410 983 l 371 704 l 508 704 l 547 983 l 682 983 l 643 704 l 760 704 l 760 579 l 626 579 l 603 404 l 719 404 l 719 279 l 586 279 l 547 0 l 413 0 l 451 279 l 314 279 l 275 0 l 140 0 m 492 579 l 354 579 l 331 404 l 468 404 "},"$":{"ha":822,"x_min":0,"x_max":0,"o":"m 456 1000 b 753 913 556 1000 672 976 l 619 750 b 456 808 575 789 515 806 l 456 588 l 589 549 b 790 297 711 513 790 426 b 456 -17 790 103 638 1 l 456 -114 l 364 -114 l 364 -17 b 21 96 242 -17 113 13 l 168 261 b 364 175 217 201 289 181 l 364 410 l 263 440 b 47 700 122 485 47 560 b 364 1000 47 875 200 981 l 364 1097 l 456 1097 m 364 804 b 264 710 313 793 264 768 b 364 610 264 626 340 618 m 456 178 b 574 281 513 189 574 217 b 482 376 574 340 531 358 l 456 386 "},"%":{"ha":1260,"x_min":0,"x_max":0,"o":"m 706 260 b 979 535 706 413 828 535 b 1253 260 1131 535 1253 413 b 979 -17 1253 107 1131 -17 b 706 260 828 -17 706 107 m 1111 260 b 979 393 1111 333 1053 393 b 847 260 906 393 847 333 b 979 125 847 185 906 125 b 1111 260 1053 125 1111 185 m 7 725 b 281 1000 7 878 129 1000 b 554 725 432 1000 554 878 b 281 450 554 572 432 450 b 7 725 129 450 7 572 m 413 725 b 281 858 413 799 354 858 b 149 725 207 858 149 799 b 281 592 149 651 207 592 b 413 725 354 592 413 651 m 854 1028 l 971 963 l 397 -44 l 292 15 "},"&":{"ha":1054,"x_min":0,"x_max":0,"o":"m 826 232 l 1046 0 l 778 0 l 696 93 b 407 -25 615 10 524 -25 b 58 269 229 -25 58 72 b 267 538 58 396 150 499 b 158 758 203 607 158 661 b 465 1008 158 936 308 1008 b 751 767 617 1008 751 932 b 569 511 751 650 668 563 l 696 376 l 792 507 l 1033 507 m 463 842 b 367 750 408 842 367 806 b 449 626 367 701 415 657 b 560 753 492 651 560 697 b 463 842 560 810 515 842 m 396 419 b 283 279 342 386 283 353 b 415 158 283 207 347 158 b 569 231 479 158 524 190 "},"’":{"ha":411,"x_min":0,"x_max":0,"o":"m 232 592 l 54 592 l 157 983 l 357 983 "},"(":{"ha":436,"x_min":0,"x_max":0,"o":"m 407 933 b 228 400 294 757 228 615 b 407 -133 228 185 294 43 l 264 -217 l 261 -211 b 61 400 133 -22 61 172 b 261 1011 61 628 133 822 l 264 1017 "},")":{"ha":436,"x_min":0,"x_max":0,"o":"m 29 -133 b 208 400 142 43 208 185 b 29 933 208 615 142 757 l 172 1017 l 175 1011 b 375 400 303 822 375 628 b 175 -211 375 172 303 -22 l 172 -217 "},"*":{"ha":669,"x_min":0,"x_max":0,"o":"m 407 792 l 589 851 l 631 719 l 449 661 l 564 503 l 449 418 l 332 578 l 219 425 l 107 510 l 224 661 l 39 725 l 83 857 l 265 792 l 265 983 l 407 983 "},"+":{"ha":925,"x_min":0,"x_max":0,"o":"m 82 508 l 375 508 l 375 801 l 550 801 l 550 508 l 843 508 l 843 333 l 550 333 l 550 40 l 375 40 l 375 333 l 82 333 "},",":{"ha":411,"x_min":0,"x_max":0,"o":"m 126 225 l 326 225 l 201 -167 l 24 -167 "},"-":{"ha":411,"x_min":0,"x_max":0,"o":"m 376 263 l 35 263 l 35 429 l 376 429 "},".":{"ha":411,"x_min":0,"x_max":0,"o":"m 78 119 b 206 247 78 190 135 247 b 333 119 276 247 333 190 b 206 -8 333 49 276 -8 b 78 119 135 -8 78 49 "},"/":{"ha":565,"x_min":0,"x_max":0,"o":"m 411 1057 l 569 1008 l 153 -74 l -4 -25 "},":":{"ha":411,"x_min":0,"x_max":0,"o":"m 78 119 b 206 247 78 190 135 247 b 333 119 276 247 333 190 b 206 -8 333 49 276 -8 b 78 119 135 -8 78 49 m 78 564 b 206 692 78 635 135 692 b 333 564 276 692 333 635 b 206 436 333 493 276 436 b 78 564 135 436 78 493 "},";":{"ha":411,"x_min":0,"x_max":0,"o":"m 126 225 l 326 225 l 201 -167 l 24 -167 m 78 564 b 206 692 78 635 135 692 b 333 564 276 692 333 635 b 206 436 333 493 276 436 b 78 564 135 436 78 493 "},"<":{"ha":925,"x_min":0,"x_max":0,"o":"m 814 594 l 374 422 l 374 419 l 814 247 l 814 58 l 111 333 l 111 508 l 814 783 "},"=":{"ha":925,"x_min":0,"x_max":0,"o":"m 82 642 l 843 642 l 843 467 l 82 467 m 82 375 l 843 375 l 843 200 l 82 200 "},">":{"ha":925,"x_min":0,"x_max":0,"o":"m 111 247 l 551 419 l 551 422 l 111 594 l 111 783 l 814 508 l 814 333 l 111 58 "},"?":{"ha":772,"x_min":0,"x_max":0,"o":"m 300 386 b 349 511 300 442 314 478 b 526 719 451 610 526 656 b 426 817 526 781 483 817 b 289 693 340 817 294 761 l 75 707 b 422 1008 94 903 229 1008 b 735 735 592 1008 735 914 b 563 461 735 629 694 565 b 508 365 519 428 508 396 l 508 325 l 300 325 m 276 119 b 404 247 276 190 333 247 b 532 119 475 247 532 190 b 404 -8 532 49 475 -8 b 276 119 333 -8 276 49 "},"@":{"ha":1111,"x_min":0,"x_max":0,"o":"m 660 506 b 557 633 660 579 626 633 b 418 461 472 633 418 557 b 514 338 418 403 436 338 b 660 506 631 338 660 429 m 789 468 b 776 376 783 442 776 403 b 814 338 776 356 785 338 b 933 544 872 338 933 400 b 571 883 933 767 782 883 b 186 490 340 883 186 718 b 594 100 186 247 360 100 b 857 185 699 100 789 131 l 1010 185 b 583 -25 911 49 753 -25 b 44 490 288 -25 44 189 b 575 1008 44 786 282 1008 b 1067 551 819 1008 1067 846 b 758 213 1067 256 842 213 b 649 288 681 213 650 251 l 646 288 b 468 213 610 250 556 213 b 268 446 349 213 268 308 b 546 758 268 608 374 758 b 696 679 619 758 668 736 l 699 679 l 710 742 l 840 742 "},"A":{"ha":1029,"x_min":0,"x_max":0,"o":"m 424 983 l 603 983 l 1031 0 l 786 0 l 701 208 l 319 208 l 238 0 l -1 0 m 507 697 l 388 392 l 628 392 "},"B":{"ha":900,"x_min":0,"x_max":0,"o":"m 100 983 l 467 983 b 826 733 639 983 826 947 b 657 517 826 624 758 549 l 657 514 b 872 274 786 497 872 401 b 503 0 872 68 678 0 l 100 0 m 317 590 l 474 590 b 610 697 540 590 610 618 b 464 800 610 779 532 800 l 317 800 m 317 183 l 511 183 b 656 299 579 183 656 213 b 481 407 656 392 551 407 l 317 407 "},"C":{"ha":951,"x_min":0,"x_max":0,"o":"m 743 728 b 557 808 700 779 638 808 b 272 492 393 808 272 675 b 550 175 272 308 393 175 b 753 281 638 175 708 214 l 933 146 b 578 -25 851 29 713 -25 b 47 492 271 -25 47 176 b 578 1008 47 807 271 1008 b 910 864 688 1008 826 971 "},"D":{"ha":1054,"x_min":0,"x_max":0,"o":"m 100 983 l 425 983 b 1007 489 742 983 1007 849 b 454 0 1007 171 747 0 l 100 0 m 317 200 l 429 200 b 782 500 631 200 782 276 b 444 783 782 693 628 783 l 317 783 "},"E":{"ha":875,"x_min":0,"x_max":0,"o":"m 108 983 l 776 983 l 776 783 l 325 783 l 325 600 l 751 600 l 751 400 l 325 400 l 325 200 l 801 200 l 801 0 l 108 0 "},"F":{"ha":824,"x_min":0,"x_max":0,"o":"m 108 983 l 768 983 l 768 783 l 325 783 l 325 583 l 735 583 l 735 383 l 325 383 l 325 0 l 108 0 "},"G":{"ha":1081,"x_min":0,"x_max":0,"o":"m 990 69 b 578 -25 863 3 722 -25 b 47 492 271 -25 47 176 b 578 1008 47 807 271 1008 b 969 882 733 1008 871 974 l 817 715 b 578 808 758 776 688 808 b 272 492 393 808 272 675 b 578 175 272 308 393 175 b 782 224 672 175 742 201 l 782 383 l 606 383 l 606 583 l 990 583 "},"H":{"ha":1054,"x_min":0,"x_max":0,"o":"m 100 983 l 317 983 l 317 617 l 738 617 l 738 983 l 954 983 l 954 0 l 738 0 l 738 425 l 317 425 l 317 0 l 100 0 "},"I":{"ha":411,"x_min":0,"x_max":0,"o":"m 97 983 l 314 983 l 314 0 l 97 0 "},"J":{"ha":694,"x_min":0,"x_max":0,"o":"m 608 329 b 294 -25 608 147 561 -25 b -7 204 139 -25 25 47 l 192 253 b 289 167 197 206 242 167 b 392 353 390 167 392 279 l 392 983 l 608 983 "},"K":{"ha":1003,"x_min":0,"x_max":0,"o":"m 108 983 l 325 983 l 325 575 l 707 983 l 990 983 l 553 526 l 1028 0 l 725 0 l 325 467 l 325 0 l 108 0 "},"L":{"ha":746,"x_min":0,"x_max":0,"o":"m 108 983 l 325 983 l 325 200 l 726 200 l 726 0 l 108 0 "},"M":{"ha":1311,"x_min":0,"x_max":0,"o":"m 100 983 l 428 983 l 654 342 l 657 342 l 885 983 l 1211 983 l 1211 0 l 994 0 l 994 754 l 992 754 l 733 0 l 568 0 l 319 754 l 317 754 l 317 0 l 100 0 "},"N":{"ha":1132,"x_min":0,"x_max":0,"o":"m 100 983 l 394 983 l 813 300 l 815 300 l 815 983 l 1032 983 l 1032 0 l 749 0 l 319 700 l 317 700 l 317 0 l 100 0 "},"O":{"ha":1156,"x_min":0,"x_max":0,"o":"m 47 492 b 578 1008 47 807 271 1008 b 1108 492 885 1008 1108 807 b 578 -25 1108 176 885 -25 b 47 492 271 -25 47 176 m 272 492 b 578 175 272 308 393 175 b 883 492 763 175 883 308 b 578 808 883 675 763 808 b 272 492 393 808 272 675 "},"P":{"ha":875,"x_min":0,"x_max":0,"o":"m 100 983 l 465 983 b 839 685 669 983 839 918 b 475 383 839 454 682 383 l 317 383 l 317 0 l 100 0 m 317 567 l 461 567 b 614 685 538 567 614 593 b 428 800 614 786 511 800 l 317 800 "},"Q":{"ha":1183,"x_min":0,"x_max":0,"o":"m 1176 0 l 581 0 b 47 504 274 0 47 188 b 572 1008 47 801 281 1008 b 1097 504 864 1008 1097 800 b 901 169 1097 365 1036 229 l 901 167 l 1176 167 m 272 504 b 572 200 272 335 407 200 b 872 504 738 200 872 335 b 572 808 872 674 738 808 b 272 504 407 808 272 674 "},"R":{"ha":900,"x_min":0,"x_max":0,"o":"m 100 983 l 481 983 b 851 685 682 983 851 914 b 639 415 851 547 778 440 l 889 0 l 629 0 l 424 393 l 317 393 l 317 0 l 100 0 m 317 576 l 444 576 b 626 686 524 576 626 579 b 458 800 626 785 538 800 l 317 800 "},"S":{"ha":797,"x_min":0,"x_max":0,"o":"m 586 743 b 429 808 551 788 482 808 b 283 707 368 808 283 781 b 736 299 283 528 736 643 b 357 -25 736 79 560 -25 b 26 99 231 -25 119 13 l 181 268 b 369 175 225 210 297 175 b 519 278 440 175 519 208 b 58 689 519 458 58 361 b 433 1008 58 899 240 1008 b 735 906 544 1008 651 979 "},"T":{"ha":797,"x_min":0,"x_max":0,"o":"m 290 792 l 10 792 l 10 983 l 788 983 l 788 792 l 507 792 l 507 0 l 290 0 "},"U":{"ha":1029,"x_min":0,"x_max":0,"o":"m 929 379 b 515 -25 929 147 788 -25 b 100 379 242 -25 100 147 l 100 983 l 317 983 l 317 388 b 515 175 317 267 400 175 b 713 388 629 175 713 267 l 713 983 l 929 983 "},"V":{"ha":978,"x_min":0,"x_max":0,"o":"m 3 983 l 250 983 l 493 339 l 496 339 l 743 983 l 975 983 l 569 0 l 396 0 "},"W":{"ha":1389,"x_min":0,"x_max":0,"o":"m -3 983 l 233 983 l 390 353 l 393 353 l 599 983 l 800 983 l 1004 336 l 1007 336 l 1172 983 l 1392 983 l 1104 0 l 911 0 l 694 681 l 692 681 l 475 0 l 289 0 "},"X":{"ha":1003,"x_min":0,"x_max":0,"o":"m 344 514 l 19 983 l 292 983 l 501 639 l 703 983 l 965 983 l 647 518 l 1003 0 l 731 0 l 490 396 l 257 0 l 0 0 "},"Y":{"ha":900,"x_min":0,"x_max":0,"o":"m 342 419 l -28 983 l 242 983 l 450 615 l 671 983 l 928 983 l 558 419 l 558 0 l 342 0 "},"Z":{"ha":875,"x_min":0,"x_max":0,"o":"m 49 200 l 547 792 l 67 792 l 67 983 l 810 983 l 810 792 l 321 200 l 826 200 l 826 0 l 49 0 "},"[":{"ha":411,"x_min":0,"x_max":0,"o":"m 383 892 l 258 892 l 258 -92 l 383 -92 l 383 -217 l 92 -217 l 92 1017 l 383 1017 "},"\\":{"ha":565,"x_min":0,"x_max":0,"o":"m 413 -74 l -4 1008 l 154 1057 l 569 -25 "},"]":{"ha":411,"x_min":0,"x_max":0,"o":"m 28 -92 l 153 -92 l 153 892 l 28 892 l 28 1017 l 319 1017 l 319 -217 l 28 -217 "},"^":{"ha":925,"x_min":0,"x_max":0,"o":"m 361 983 l 564 983 l 814 476 l 617 476 l 463 807 l 307 476 l 111 476 "},"_":{"ha":694,"x_min":0,"x_max":0,"o":"m 0 -174 l 0 -104 l 694 -104 l 694 -174 "},"‘":{"ha":411,"x_min":0,"x_max":0,"o":"m 179 983 l 357 983 l 254 592 l 54 592 "},"a":{"ha":746,"x_min":0,"x_max":0,"o":"m 497 85 l 494 85 b 281 -17 449 13 365 -17 b 40 192 154 -17 40 56 b 497 429 40 425 324 429 b 364 550 497 503 436 550 b 194 469 296 550 239 519 l 83 583 b 381 692 160 656 271 692 b 689 343 624 692 689 568 l 689 0 l 497 0 m 446 296 b 240 199 382 296 240 290 b 339 125 240 149 293 125 b 497 251 421 125 497 168 l 497 296 "},"b":{"ha":875,"x_min":0,"x_max":0,"o":"m 93 1050 l 301 1050 l 301 603 l 304 603 b 518 692 351 668 432 692 b 826 332 710 692 826 519 b 494 -17 826 128 694 -17 b 288 89 400 -17 319 40 l 285 89 l 285 0 l 93 0 m 285 338 b 451 167 285 236 347 167 b 618 338 556 167 618 236 b 451 508 618 439 556 508 b 285 338 347 508 285 439 "},"c":{"ha":669,"x_min":0,"x_max":0,"o":"m 531 457 b 428 508 510 486 471 508 b 261 338 324 508 261 439 b 428 167 261 236 324 167 b 531 218 474 167 507 190 l 668 74 b 428 -17 603 7 507 -17 b 53 338 219 -17 53 122 b 428 692 53 553 219 692 b 668 601 507 692 603 668 "},"d":{"ha":875,"x_min":0,"x_max":0,"o":"m 782 0 l 590 0 l 590 89 l 588 89 b 381 -17 556 40 475 -17 b 49 332 181 -17 49 128 b 357 692 49 519 165 692 b 571 603 443 692 524 668 l 574 603 l 574 1050 l 782 1050 m 590 338 b 424 508 590 439 528 508 b 257 338 319 508 257 439 b 424 167 257 236 319 167 b 590 338 528 167 590 236 "},"e":{"ha":797,"x_min":0,"x_max":0,"o":"m 713 117 b 428 -17 646 32 536 -17 b 53 338 219 -17 53 122 b 428 692 53 553 219 692 b 744 338 622 692 744 553 l 744 272 l 261 272 b 418 142 278 193 338 142 b 567 224 486 142 532 176 m 536 414 b 408 542 538 483 483 542 b 261 414 317 542 267 479 "},"f":{"ha":514,"x_min":0,"x_max":0,"o":"m 146 508 l 8 508 l 8 675 l 146 675 l 146 794 b 410 1067 146 942 183 1067 b 532 1054 451 1067 493 1064 l 522 878 b 454 892 499 886 479 892 b 354 782 388 892 354 871 l 354 675 l 508 675 l 508 508 l 354 508 l 354 0 l 146 0 "},"g":{"ha":875,"x_min":0,"x_max":0,"o":"m 782 57 b 392 -333 782 -197 653 -333 b 53 -235 272 -333 150 -312 l 168 -62 b 388 -150 232 -117 303 -150 b 574 15 514 -150 574 -81 l 574 81 l 571 81 b 381 -8 524 15 443 -8 b 49 340 181 -8 49 136 b 357 692 49 519 165 692 b 588 586 475 692 556 635 l 590 586 l 590 675 l 782 675 m 257 342 b 424 175 257 254 329 175 b 590 342 518 175 590 254 b 424 508 590 429 518 508 b 257 342 329 508 257 429 "},"h":{"ha":797,"x_min":0,"x_max":0,"o":"m 282 1050 l 282 583 l 285 583 b 474 692 304 636 372 692 b 724 372 685 692 724 553 l 724 0 l 515 0 l 515 331 b 407 508 515 408 514 508 b 282 336 299 508 282 424 l 282 0 l 74 0 l 74 1050 "},"i":{"ha":361,"x_min":0,"x_max":0,"o":"m 76 675 l 285 675 l 285 0 l 76 0 m 60 888 b 181 1008 60 954 114 1008 b 301 888 247 1008 301 954 b 181 767 301 821 247 767 b 60 888 114 767 60 821 "},"j":{"ha":361,"x_min":0,"x_max":0,"o":"m 285 -50 b 35 -333 285 -222 225 -333 b -62 -322 3 -333 -32 -332 l -51 -137 b 3 -150 -35 -146 -15 -150 b 76 -14 75 -150 76 -65 l 76 675 l 285 675 m 60 888 b 181 1008 60 954 114 1008 b 301 888 247 1008 301 954 b 181 767 301 821 247 767 b 60 888 114 767 60 821 "},"k":{"ha":772,"x_min":0,"x_max":0,"o":"m 74 1050 l 282 1050 l 282 408 l 513 675 l 768 675 l 500 371 l 775 0 l 513 0 l 285 342 l 282 342 l 282 0 l 74 0 "},"l":{"ha":361,"x_min":0,"x_max":0,"o":"m 76 1050 l 285 1050 l 285 0 l 76 0 "},"m":{"ha":1208,"x_min":0,"x_max":0,"o":"m 74 675 l 274 675 l 274 583 l 276 583 b 474 692 304 636 372 692 b 682 571 568 692 646 653 b 896 692 731 657 796 692 b 1135 399 1079 692 1135 563 l 1135 0 l 926 0 l 926 393 b 835 508 926 456 903 508 b 708 357 739 508 708 440 l 708 0 l 500 0 l 500 357 b 407 508 500 407 503 508 b 282 336 299 508 282 424 l 282 0 l 74 0 "},"n":{"ha":797,"x_min":0,"x_max":0,"o":"m 74 675 l 274 675 l 274 583 l 276 583 b 474 692 304 636 372 692 b 724 372 685 692 724 553 l 724 0 l 515 0 l 515 331 b 407 508 515 408 514 508 b 282 336 299 508 282 424 l 282 0 l 74 0 "},"o":{"ha":847,"x_min":0,"x_max":0,"o":"m 49 338 b 424 692 49 553 215 692 b 799 338 632 692 799 553 b 424 -17 799 122 632 -17 b 49 338 215 -17 49 122 m 257 338 b 424 167 257 236 319 167 b 590 338 528 167 590 236 b 424 508 590 439 528 508 b 257 338 319 508 257 439 "},"p":{"ha":875,"x_min":0,"x_max":0,"o":"m 93 675 l 285 675 l 285 586 l 288 586 b 494 692 319 635 400 692 b 826 343 694 692 826 547 b 518 -17 826 156 710 -17 b 304 72 432 -17 351 7 l 301 72 l 301 -317 l 93 -317 m 285 338 b 451 167 285 236 347 167 b 618 338 556 167 618 236 b 451 508 618 439 556 508 b 285 338 347 508 285 439 "},"q":{"ha":875,"x_min":0,"x_max":0,"o":"m 782 -317 l 574 -317 l 574 72 l 571 72 b 357 -17 524 7 443 -17 b 49 343 165 -17 49 156 b 381 692 49 547 181 692 b 588 586 475 692 556 635 l 590 586 l 590 675 l 782 675 m 590 338 b 424 508 590 439 528 508 b 257 338 319 508 257 439 b 424 167 257 236 319 167 b 590 338 528 167 590 236 "},"r":{"ha":565,"x_min":0,"x_max":0,"o":"m 74 675 l 282 675 l 282 567 l 285 567 b 479 692 329 649 388 692 b 549 685 503 692 529 690 l 549 494 b 460 508 519 503 490 508 b 282 282 301 508 282 417 l 282 0 l 74 0 "},"s":{"ha":643,"x_min":0,"x_max":0,"o":"m 456 476 b 335 533 425 514 385 533 b 258 478 300 533 258 518 b 610 206 258 378 610 463 b 299 -17 610 33 443 -17 b 33 75 204 -17 100 7 l 160 215 b 307 142 199 168 244 142 b 401 190 354 142 401 154 b 50 464 401 299 50 207 b 333 692 50 622 192 692 b 583 603 422 692 521 669 "},"t":{"ha":565,"x_min":0,"x_max":0,"o":"m 533 508 l 350 508 l 350 283 b 449 158 350 211 358 158 b 533 178 471 158 515 161 l 533 4 b 388 -17 488 -12 436 -17 b 142 188 249 -17 142 40 l 142 508 l 8 508 l 8 675 l 142 675 l 142 875 l 350 875 l 350 675 l 533 675 "},"u":{"ha":797,"x_min":0,"x_max":0,"o":"m 724 0 l 524 0 l 524 92 l 521 92 b 324 -17 493 39 425 -17 b 74 303 113 -17 74 122 l 74 675 l 282 675 l 282 344 b 390 167 282 267 283 167 b 515 339 499 167 515 251 l 515 675 l 724 675 "},"v":{"ha":772,"x_min":0,"x_max":0,"o":"m 3 675 l 228 675 l 399 217 l 401 217 l 560 675 l 769 675 l 503 0 l 282 0 "},"w":{"ha":1157,"x_min":0,"x_max":0,"o":"m -7 675 l 215 675 l 353 251 l 356 251 l 471 675 l 699 675 l 824 251 l 826 251 l 953 675 l 1164 675 l 924 0 l 718 0 l 578 449 l 575 449 l 450 0 l 240 0 "},"x":{"ha":772,"x_min":0,"x_max":0,"o":"m 256 361 l 31 675 l 276 675 l 396 492 l 511 675 l 743 675 l 524 361 l 783 0 l 538 0 l 390 225 l 232 0 l -11 0 "},"y":{"ha":772,"x_min":0,"x_max":0,"o":"m 463 -110 b 176 -333 407 -253 375 -333 b 21 -308 124 -333 71 -325 l 49 -137 b 146 -158 81 -151 111 -158 b 285 -44 240 -158 256 -118 l 300 -6 l 4 675 l 229 675 l 403 229 l 406 229 l 554 675 l 768 675 "},"z":{"ha":694,"x_min":0,"x_max":0,"o":"m 47 208 l 397 508 l 56 508 l 56 675 l 639 675 l 639 475 l 272 167 l 647 167 l 647 0 l 47 0 "},"{":{"ha":514,"x_min":0,"x_max":0,"o":"m 494 -217 l 349 -217 b 169 -14 250 -217 169 -158 l 169 225 b 19 321 169 311 54 321 l 19 479 b 169 575 54 479 169 489 l 169 815 b 349 1017 169 960 246 1017 l 494 1017 l 494 858 l 426 858 b 336 769 342 858 336 807 l 336 546 b 197 401 335 417 256 407 l 197 399 b 336 256 256 394 335 385 l 336 31 b 426 -58 336 -7 342 -58 l 494 -58 "},"|":{"ha":308,"x_min":0,"x_max":0,"o":"m 242 1042 l 242 -347 l 67 -347 l 67 1042 "},"}":{"ha":514,"x_min":0,"x_max":0,"o":"m 19 1017 l 169 1017 b 344 814 264 1017 344 958 l 344 575 b 494 479 344 489 456 479 l 494 321 b 344 225 456 321 344 311 l 344 -15 b 165 -217 344 -160 268 -217 l 19 -217 l 19 -58 l 88 -58 b 178 31 172 -58 178 -7 l 178 254 b 317 399 179 383 258 393 l 317 401 b 178 544 258 406 179 415 l 178 769 b 88 858 178 807 172 858 l 19 858 "},"~":{"ha":925,"x_min":0,"x_max":0,"o":"m 783 406 b 610 286 753 347 703 286 b 456 331 563 286 508 307 b 314 381 404 353 351 381 b 192 286 258 381 224 329 l 142 436 b 315 556 172 494 222 556 b 469 511 363 556 417 535 b 611 461 521 489 574 461 b 733 556 667 461 701 513 "},"¡":{"ha":617,"x_min":0,"x_max":0,"o":"m 204 350 l 413 350 l 413 -308 l 204 -308 m 436 556 b 308 428 436 485 379 428 b 181 556 238 428 181 485 b 308 683 181 626 238 683 b 436 556 379 683 436 626 "},"¢":{"ha":822,"x_min":0,"x_max":0,"o":"m 431 -17 b 106 338 233 -6 106 146 b 431 692 106 535 233 668 l 431 783 l 514 783 l 514 692 b 753 606 608 692 681 667 l 619 464 b 514 517 583 501 546 517 l 514 158 b 629 218 535 158 571 161 l 756 69 b 514 -17 686 1 578 -17 l 514 -112 l 431 -112 m 431 517 b 306 339 344 500 306 425 b 431 158 306 254 344 185 "},"£":{"ha":822,"x_min":0,"x_max":0,"o":"m 67 158 l 200 158 l 200 433 l 67 433 l 67 575 l 200 575 l 200 674 b 544 1000 200 839 319 1000 b 835 906 649 1000 758 975 l 696 757 b 569 817 658 794 607 817 b 408 643 446 817 408 729 l 408 575 l 625 575 l 625 433 l 408 433 l 408 158 l 760 158 l 760 0 l 67 0 "},"⁄":{"ha":232,"x_min":0,"x_max":0,"o":"m 339 1028 l 456 963 l -118 -44 l -224 15 "},"¥":{"ha":822,"x_min":0,"x_max":0,"o":"m 303 219 l 68 219 l 68 353 l 303 353 l 303 419 l 286 447 l 68 447 l 68 581 l 207 581 l -50 983 l 203 983 l 411 617 l 619 983 l 872 983 l 615 581 l 754 581 l 754 447 l 536 447 l 519 419 l 519 353 l 754 353 l 754 219 l 519 219 l 519 0 l 303 0 "},"ƒ":{"ha":822,"x_min":0,"x_max":0,"o":"m 689 461 l 486 461 l 406 56 b 126 -193 375 -96 300 -193 b -28 -160 75 -193 19 -181 l 44 6 b 108 -10 64 -6 86 -10 b 213 122 167 -10 193 26 l 282 461 l 124 461 l 124 603 l 310 603 l 335 729 b 610 1000 375 935 439 1000 b 790 958 675 1000 731 986 l 717 801 b 644 817 694 811 669 817 b 535 701 578 817 551 782 l 514 603 l 689 603 "},"§":{"ha":822,"x_min":0,"x_max":0,"o":"m 543 757 b 415 842 524 810 471 842 b 325 768 371 842 325 818 b 758 390 325 632 758 643 b 642 210 758 314 708 243 b 718 44 690 171 718 108 b 376 -210 718 -137 526 -210 b 53 -35 239 -210 115 -168 l 231 53 b 382 -43 247 -14 319 -43 b 493 29 426 -43 493 -28 b 75 407 493 160 75 139 b 196 613 75 500 119 565 b 108 772 142 649 108 706 b 407 1008 108 935 268 1008 b 718 857 525 1008 661 974 m 519 267 b 567 351 550 285 567 315 b 476 451 567 404 518 433 l 315 528 b 267 446 283 510 267 482 b 378 332 267 379 326 356 "},"¤":{"ha":822,"x_min":0,"x_max":0,"o":"m 118 281 b 50 492 75 340 50 413 b 118 703 50 571 75 643 l 50 771 l 133 853 l 201 786 b 411 853 260 828 332 853 b 621 786 490 853 563 828 l 689 853 l 772 771 l 704 703 b 772 492 749 642 772 571 b 704 281 772 413 749 342 l 772 213 l 689 131 l 621 197 b 411 131 563 156 490 131 b 201 197 332 131 260 156 l 133 131 l 50 213 m 233 492 b 411 306 233 388 313 306 b 589 492 510 306 589 388 b 411 678 589 596 510 678 b 233 492 313 678 233 596 "},"'":{"ha":411,"x_min":0,"x_max":0,"o":"m 118 983 l 293 983 l 293 592 l 118 592 "},"“":{"ha":722,"x_min":0,"x_max":0,"o":"m 186 983 l 364 983 l 261 592 l 61 592 m 483 983 l 661 983 l 558 592 l 358 592 "},"«":{"ha":747,"x_min":0,"x_max":0,"o":"m 211 346 l 372 106 l 246 21 l 25 346 l 246 671 l 372 586 m 547 346 l 708 106 l 582 21 l 361 346 l 582 671 l 708 586 "},"‹":{"ha":411,"x_min":0,"x_max":0,"o":"m 211 346 l 372 106 l 246 21 l 25 346 l 246 671 l 372 586 "},"›":{"ha":411,"x_min":0,"x_max":0,"o":"m 200 346 l 39 586 l 165 671 l 386 346 l 165 21 l 39 106 "},"ﬁ":{"ha":875,"x_min":0,"x_max":0,"o":"m 590 675 l 799 675 l 799 0 l 590 0 m 574 888 b 694 1008 574 954 628 1008 b 815 888 761 1008 815 954 b 694 767 815 821 761 767 b 574 888 628 767 574 821 m 146 508 l 8 508 l 8 675 l 146 675 l 146 794 b 410 1067 146 942 183 1067 b 532 1054 451 1067 493 1064 l 522 878 b 454 892 499 886 479 892 b 354 782 388 892 354 871 l 354 675 l 508 675 l 508 508 l 354 508 l 354 0 l 146 0 "},"ﬂ":{"ha":875,"x_min":0,"x_max":0,"o":"m 590 1050 l 799 1050 l 799 0 l 590 0 m 146 508 l 8 508 l 8 675 l 146 675 l 146 794 b 410 1067 146 942 183 1067 b 532 1054 451 1067 493 1064 l 522 878 b 454 892 499 886 479 892 b 354 782 388 892 354 871 l 354 675 l 508 675 l 508 508 l 354 508 l 354 0 l 146 0 "},"–":{"ha":694,"x_min":0,"x_max":0,"o":"m 0 429 l 694 429 l 694 263 l 0 263 "},"†":{"ha":822,"x_min":0,"x_max":0,"o":"m 311 517 l 47 517 l 47 692 l 311 692 l 311 983 l 503 983 l 503 692 l 775 692 l 775 517 l 503 517 l 503 -185 l 311 -185 "},"‡":{"ha":822,"x_min":0,"x_max":0,"o":"m 315 65 l 47 65 l 47 232 l 315 232 l 315 567 l 47 567 l 47 733 l 315 733 l 315 983 l 507 983 l 507 733 l 775 733 l 775 567 l 507 567 l 507 232 l 775 232 l 775 65 l 507 65 l 507 -185 l 315 -185 "},"·":{"ha":411,"x_min":0,"x_max":0,"o":"m 78 393 b 206 521 78 464 135 521 b 333 393 276 521 333 464 b 206 265 333 322 276 265 b 78 393 135 265 78 322 "},"¶":{"ha":861,"x_min":0,"x_max":0,"o":"m 328 499 b 18 736 126 499 18 588 b 360 983 18 936 167 983 l 779 983 l 779 -185 l 629 -185 l 629 850 l 478 850 l 478 -185 l 328 -185 "},"•":{"ha":694,"x_min":0,"x_max":0,"o":"m 101 492 b 347 738 101 628 211 738 b 593 492 483 738 593 628 b 347 246 593 356 483 246 b 101 492 211 246 101 356 "},"‚":{"ha":411,"x_min":0,"x_max":0,"o":"m 232 -175 l 54 -175 l 157 217 l 357 217 "},"„":{"ha":722,"x_min":0,"x_max":0,"o":"m 536 -175 l 358 -175 l 461 217 l 661 217 m 239 -175 l 61 -175 l 164 217 l 364 217 "},"”":{"ha":722,"x_min":0,"x_max":0,"o":"m 536 592 l 358 592 l 461 983 l 661 983 m 239 592 l 61 592 l 164 983 l 364 983 "},"»":{"ha":747,"x_min":0,"x_max":0,"o":"m 536 346 l 375 586 l 501 671 l 722 346 l 501 21 l 375 106 m 200 346 l 39 586 l 165 671 l 386 346 l 165 21 l 39 106 "},"…":{"ha":1389,"x_min":0,"x_max":0,"o":"m 104 119 b 232 247 104 190 161 247 b 360 119 303 247 360 190 b 232 -8 360 49 303 -8 b 104 119 161 -8 104 49 m 567 119 b 694 247 567 190 624 247 b 822 119 765 247 822 190 b 694 -8 822 49 765 -8 b 567 119 624 -8 567 49 m 1029 119 b 1157 247 1029 190 1086 247 b 1285 119 1228 247 1285 190 b 1157 -8 1285 49 1228 -8 b 1029 119 1086 -8 1029 49 "},"‰":{"ha":1621,"x_min":0,"x_max":0,"o":"m 549 229 b 793 474 549 364 657 474 b 1038 229 928 474 1038 364 b 793 -17 1038 94 928 -17 b 549 229 657 -17 549 94 m 682 229 b 793 117 682 168 732 117 b 904 229 854 117 904 168 b 793 340 904 290 854 340 b 682 229 732 340 682 290 m 1086 229 b 1331 474 1086 364 1196 474 b 1576 229 1465 474 1576 364 b 1331 -17 1576 94 1465 -17 b 1086 229 1196 -17 1086 94 m 1219 229 b 1331 117 1219 168 1269 117 b 1443 229 1392 117 1443 168 b 1331 340 1443 290 1392 340 b 1219 229 1269 340 1219 290 m 44 756 b 289 1000 44 890 153 1000 b 535 756 424 1000 535 890 b 289 510 535 621 424 510 b 44 756 153 510 44 621 m 178 756 b 289 643 178 694 228 643 b 401 756 350 643 401 694 b 289 867 401 817 350 867 b 178 756 228 867 178 817 m 767 1028 l 883 963 l 310 -44 l 204 15 "},"¿":{"ha":772,"x_min":0,"x_max":0,"o":"m 472 289 b 424 164 472 233 458 197 b 246 -44 321 65 246 19 b 346 -142 246 -106 289 -142 b 483 -18 432 -142 478 -86 l 697 -32 b 350 -333 678 -228 543 -333 b 38 -60 181 -333 38 -239 b 210 214 38 46 78 110 b 264 310 253 247 264 279 l 264 350 l 472 350 m 496 556 b 368 428 496 485 439 428 b 240 556 297 428 240 485 b 368 683 240 626 297 683 b 496 556 439 683 496 626 "},"`":{"ha":361,"x_min":0,"x_max":0,"o":"m 322 783 l 139 783 l -101 983 l 182 983 "},"´":{"ha":361,"x_min":0,"x_max":0,"o":"m 182 983 l 465 983 l 225 783 l 42 783 "},"ˆ":{"ha":361,"x_min":0,"x_max":0,"o":"m 265 783 l 178 892 l 92 783 l -96 783 l 69 983 l 296 983 l 457 783 "},"˜":{"ha":361,"x_min":0,"x_max":0,"o":"m -92 792 b 85 983 -76 885 -19 983 b 206 954 131 983 165 971 b 283 933 231 944 256 933 b 344 983 315 933 332 956 l 453 983 b 272 792 435 878 389 792 b 164 821 232 792 196 807 b 76 850 132 836 104 850 b 18 792 44 850 26 818 "},"¯":{"ha":361,"x_min":0,"x_max":0,"o":"m 417 821 l -56 821 l -56 954 l 417 954 "},"˘":{"ha":361,"x_min":0,"x_max":0,"o":"m 36 983 b 181 917 49 929 119 917 b 326 983 253 917 306 922 l 436 983 b 181 783 421 842 313 783 b -75 983 49 783 -67 838 "},"˙":{"ha":361,"x_min":0,"x_max":0,"o":"m 179 775 b 64 894 114 775 64 831 b 176 1008 64 954 115 1008 b 297 894 240 1008 297 961 b 179 775 297 828 247 775 "},"¨":{"ha":361,"x_min":0,"x_max":0,"o":"m 35 775 b -81 894 -31 775 -81 831 b 32 1008 -81 954 -29 1008 b 153 894 96 1008 153 961 b 35 775 153 828 103 775 m 324 775 b 208 894 258 775 208 831 b 321 1008 208 954 260 1008 b 442 894 385 1008 442 961 b 324 775 442 828 392 775 "},"˚":{"ha":361,"x_min":0,"x_max":0,"o":"m 181 757 b 26 911 96 757 26 826 b 181 1065 26 996 96 1065 b 335 911 265 1065 335 996 b 181 757 335 826 265 757 m 110 911 b 181 840 110 872 142 840 b 251 911 219 840 251 872 b 181 982 251 950 219 982 b 110 911 142 982 110 950 "},"¸":{"ha":361,"x_min":0,"x_max":0,"o":"m 176 -83 b 351 -199 258 -83 351 -96 b 158 -333 351 -300 229 -333 b -15 -292 103 -333 33 -315 l 19 -226 b 126 -250 42 -235 79 -250 b 218 -206 169 -250 218 -242 b 149 -158 218 -172 176 -158 b 99 -169 131 -158 115 -162 l 54 -129 l 140 0 l 233 0 "},"˝":{"ha":361,"x_min":0,"x_max":0,"o":"m -1 983 l 282 983 l 42 783 l -142 783 m 365 983 l 649 983 l 408 783 l 225 783 "},"˛":{"ha":361,"x_min":0,"x_max":0,"o":"m 285 -275 b 133 -333 239 -310 193 -333 b -12 -204 57 -333 -12 -286 b 133 17 -12 -124 72 -31 l 228 17 b 113 -169 182 -22 113 -107 b 171 -233 113 -200 138 -233 b 246 -201 197 -233 226 -218 "},"ˇ":{"ha":361,"x_min":0,"x_max":0,"o":"m 90 983 l 178 875 l 264 983 l 451 983 l 286 783 l 60 783 l -101 983 "},"—":{"ha":1389,"x_min":0,"x_max":0,"o":"m 0 429 l 1389 429 l 1389 263 l 0 263 "},"Æ":{"ha":1440,"x_min":0,"x_max":0,"o":"m 742 208 l 376 208 l 244 0 l -21 0 l 603 983 l 1350 983 l 1350 783 l 958 783 l 958 600 l 1317 600 l 1317 400 l 958 400 l 958 200 l 1367 200 l 1367 0 l 742 0 m 742 783 l 718 783 l 469 392 l 742 392 "},"ª":{"ha":485,"x_min":0,"x_max":0,"o":"m 319 650 l 317 650 b 188 590 297 607 243 590 b 32 714 106 590 32 633 b 319 860 32 854 215 860 b 242 925 319 893 289 925 b 132 875 197 925 161 904 l 60 943 b 253 1008 110 986 182 1008 b 453 804 411 1008 453 933 l 453 599 l 319 599 m 328 776 l 303 776 b 174 719 263 776 174 772 b 233 682 174 689 204 682 b 328 750 288 682 328 718 "},"Ł":{"ha":746,"x_min":0,"x_max":0,"o":"m 108 222 l 25 150 l 25 333 l 108 406 l 108 983 l 325 983 l 325 593 l 617 850 l 617 669 l 325 414 l 325 200 l 726 200 l 726 0 l 108 0 "},"Ø":{"ha":1156,"x_min":0,"x_max":0,"o":"m 176 138 b 47 492 94 226 47 347 b 578 1008 47 807 271 1008 b 893 919 699 1008 806 978 l 1021 1058 l 1097 990 l 972 854 b 1108 492 1058 765 1108 642 b 578 -25 1108 176 885 -25 b 254 69 451 -25 339 10 l 125 -71 l 47 -4 m 749 761 b 578 808 701 792 643 808 b 272 492 393 808 272 675 b 326 301 272 419 292 354 m 399 228 b 578 175 446 194 507 175 b 883 492 763 175 883 308 b 822 690 883 569 861 639 "},"Œ":{"ha":1414,"x_min":0,"x_max":0,"o":"m 924 600 l 1290 600 l 1290 400 l 924 400 l 924 200 l 1340 200 l 1340 0 l 603 0 b 47 492 339 0 47 147 b 592 983 47 811 288 983 l 1324 983 l 1324 783 l 924 783 m 707 783 l 636 783 b 272 492 422 783 272 686 b 636 200 272 297 422 200 l 707 200 "},"º":{"ha":551,"x_min":0,"x_max":0,"o":"m 32 799 b 275 1008 32 925 139 1008 b 519 799 411 1008 519 925 b 275 590 519 667 411 590 b 32 799 139 590 32 667 m 174 799 b 275 707 175 749 213 707 b 378 799 338 707 378 749 b 275 892 378 850 338 892 b 174 799 213 892 174 850 "},"æ":{"ha":1183,"x_min":0,"x_max":0,"o":"m 83 583 b 381 692 160 656 271 692 b 600 610 460 692 542 667 b 826 692 656 664 739 692 b 1143 338 1021 692 1143 553 l 1143 272 l 660 272 b 817 142 676 193 736 142 b 965 224 885 142 931 176 l 1111 117 b 826 -17 1044 32 935 -17 b 557 93 717 -17 615 10 b 281 -17 499 13 399 -17 b 40 192 154 -17 40 56 b 460 414 40 408 308 414 l 485 414 b 364 550 485 494 439 550 b 194 469 296 550 239 519 m 240 193 b 347 125 240 132 301 125 b 485 272 446 125 485 183 l 460 272 b 240 193 396 272 240 272 m 935 414 b 807 542 936 483 882 542 b 660 414 715 542 665 479 "},"ı":{"ha":361,"x_min":0,"x_max":0,"o":"m 76 675 l 285 675 l 285 0 l 76 0 "},"ł":{"ha":361,"x_min":0,"x_max":0,"o":"m 76 344 l -7 260 l -7 439 l 76 524 l 76 1050 l 285 1050 l 285 732 l 368 817 l 368 638 l 285 553 l 285 0 l 76 0 "},"ø":{"ha":847,"x_min":0,"x_max":0,"o":"m 133 106 b 49 338 81 164 49 243 b 424 692 49 553 215 692 b 653 624 511 692 590 667 l 746 717 l 811 654 l 719 563 b 799 338 769 504 799 426 b 424 -17 799 122 632 -17 b 203 47 342 -17 265 6 l 101 -54 l 36 8 m 514 486 b 424 508 490 500 460 508 b 257 338 319 508 257 439 b 278 250 257 304 264 275 m 342 186 b 424 167 365 174 393 167 b 590 338 528 167 590 236 b 574 417 590 367 585 393 "},"œ":{"ha":1311,"x_min":0,"x_max":0,"o":"m 1226 117 b 942 -17 1160 32 1050 -17 b 678 79 826 -17 742 10 b 425 -17 608 7 518 -17 b 49 338 215 -17 49 122 b 425 692 49 553 215 692 b 678 590 524 692 611 658 b 942 692 738 653 821 692 b 1258 338 1136 692 1258 553 l 1258 272 l 775 272 b 932 142 792 193 851 142 b 1081 224 1000 142 1046 176 m 425 508 b 257 338 319 508 257 439 b 425 167 257 236 319 167 b 592 338 529 167 592 236 b 425 508 592 439 529 508 m 1050 414 b 922 542 1051 483 997 542 b 775 414 831 542 781 479 "},"ß":{"ha":875,"x_min":0,"x_max":0,"o":"m 74 713 b 429 1067 74 947 190 1067 b 750 813 586 1067 750 989 b 608 590 750 706 707 631 l 608 588 b 825 301 754 558 825 444 b 494 -17 825 104 686 -17 b 365 0 450 -17 408 -11 l 365 169 b 433 158 388 163 410 158 b 625 321 536 158 625 210 b 435 490 625 439 544 490 l 407 490 l 407 665 l 424 665 b 550 775 493 665 550 703 b 424 883 550 844 489 883 b 282 747 339 883 282 831 l 282 0 l 74 0 "},"¹":{"ha":535,"x_min":0,"x_max":0,"o":"m 254 842 l 131 738 l 50 829 l 271 992 l 404 992 l 404 401 l 254 401 "},"¬":{"ha":925,"x_min":0,"x_max":0,"o":"m 668 467 l 82 467 l 82 642 l 843 642 l 843 197 l 668 197 "},"µ":{"ha":797,"x_min":0,"x_max":0,"o":"m 724 0 l 524 0 l 524 92 l 521 92 b 324 -17 493 39 425 -17 b 282 -12 308 -17 294 -15 l 282 -317 l 74 -317 l 74 675 l 282 675 l 282 344 b 390 167 282 267 283 167 b 515 339 499 167 515 251 l 515 675 l 724 675 "},"™":{"ha":1389,"x_min":0,"x_max":0,"o":"m 221 850 l 56 850 l 56 983 l 536 983 l 536 850 l 371 850 l 371 411 l 221 411 m 658 983 l 860 983 l 996 611 l 1132 983 l 1333 983 l 1333 411 l 1183 411 l 1183 783 l 1181 783 l 1044 411 l 947 411 l 811 783 l 808 783 l 808 411 l 658 411 "},"Ð":{"ha":1054,"x_min":0,"x_max":0,"o":"m 317 583 l 592 583 l 592 442 l 317 442 l 317 200 l 429 200 b 782 500 631 200 782 276 b 444 783 782 693 628 783 l 317 783 m 100 442 l 17 442 l 17 583 l 100 583 l 100 983 l 425 983 b 1007 489 742 983 1007 849 b 454 0 1007 171 747 0 l 100 0 "},"½":{"ha":1235,"x_min":0,"x_max":0,"o":"m 215 842 l 92 738 l 11 829 l 232 992 l 365 992 l 365 401 l 215 401 m 756 124 l 1014 343 b 1074 419 1040 365 1074 392 b 992 474 1074 458 1035 474 b 900 399 939 474 903 440 l 758 407 b 999 599 768 539 865 599 b 1224 432 1128 599 1224 539 b 1139 269 1224 336 1193 311 l 944 119 l 944 117 l 1224 117 l 1224 0 l 756 0 m 825 1028 l 942 963 l 368 -44 l 263 15 "},"±":{"ha":925,"x_min":0,"x_max":0,"o":"m 82 624 l 375 624 l 375 801 l 550 801 l 550 624 l 843 624 l 843 449 l 550 449 l 550 271 l 375 271 l 375 449 l 82 449 m 82 215 l 843 215 l 843 40 l 82 40 "},"Þ":{"ha":875,"x_min":0,"x_max":0,"o":"m 100 983 l 317 983 l 317 808 l 465 808 b 839 510 669 808 839 743 b 475 208 839 279 682 208 l 317 208 l 317 0 l 100 0 m 317 392 l 461 392 b 614 510 538 392 614 418 b 428 625 614 611 511 625 l 317 625 "},"¼":{"ha":1235,"x_min":0,"x_max":0,"o":"m 994 118 l 704 118 l 704 226 l 981 590 l 1144 590 l 1144 235 l 1224 235 l 1224 118 l 1144 118 l 1144 0 l 994 0 m 994 424 l 992 424 l 854 235 l 994 235 m 215 842 l 92 738 l 11 829 l 232 992 l 365 992 l 365 401 l 215 401 m 825 1028 l 942 963 l 368 -44 l 263 15 "},"÷":{"ha":925,"x_min":0,"x_max":0,"o":"m 82 508 l 843 508 l 843 333 l 82 333 m 343 158 b 463 278 343 224 397 278 b 582 158 528 278 582 224 b 463 39 582 93 528 39 b 343 158 397 39 343 93 m 343 683 b 463 803 343 749 397 803 b 582 683 528 803 582 749 b 463 564 582 618 528 564 b 343 683 397 564 343 618 "},"¦":{"ha":308,"x_min":0,"x_max":0,"o":"m 242 938 l 242 451 l 67 451 l 67 938 m 242 243 l 242 -243 l 67 -243 l 67 243 "},"°":{"ha":556,"x_min":0,"x_max":0,"o":"m 278 639 b 400 761 346 639 400 693 b 278 883 400 829 346 883 b 156 761 210 883 156 829 b 278 639 156 693 210 639 m 278 522 b 39 761 146 522 39 629 b 278 1000 39 893 146 1000 b 517 761 410 1000 517 893 b 278 522 517 629 410 522 "},"þ":{"ha":875,"x_min":0,"x_max":0,"o":"m 93 1050 l 301 1050 l 301 603 l 304 603 b 494 692 336 657 418 692 b 826 343 694 692 826 547 b 518 -17 826 156 710 -17 b 304 72 432 -17 351 7 l 301 72 l 301 -317 l 93 -317 m 285 338 b 451 167 285 236 347 167 b 618 338 556 167 618 236 b 451 508 618 439 556 508 b 285 338 347 508 285 439 "},"¾":{"ha":1235,"x_min":0,"x_max":0,"o":"m 1000 118 l 710 118 l 710 226 l 986 590 l 1150 590 l 1150 235 l 1229 235 l 1229 118 l 1150 118 l 1150 0 l 1000 0 m 1000 424 l 997 424 l 860 235 l 1000 235 m 181 767 l 228 767 b 331 829 281 767 331 776 b 253 875 331 858 300 875 b 164 814 208 875 174 853 l 13 842 b 253 1000 42 960 139 1000 b 481 842 372 1000 481 949 b 365 713 481 776 440 725 l 365 710 b 493 571 446 700 493 639 b 249 393 493 451 381 393 b 6 557 128 393 33 439 l 157 588 b 249 518 167 544 196 518 b 343 585 301 518 343 536 b 215 650 343 649 279 650 l 181 650 m 858 1028 l 975 963 l 401 -44 l 296 15 "},"²":{"ha":535,"x_min":0,"x_max":0,"o":"m 33 525 l 292 744 b 351 821 318 767 351 793 b 269 875 351 860 313 875 b 178 800 217 875 181 842 l 36 808 b 276 1000 46 940 143 1000 b 501 833 406 1000 501 940 b 417 671 501 738 471 713 l 222 521 l 222 518 l 501 518 l 501 401 l 33 401 "},"®":{"ha":1111,"x_min":0,"x_max":0,"o":"m 357 768 l 549 768 b 779 593 607 768 779 768 b 653 442 779 483 715 450 l 792 226 l 646 226 l 522 435 l 499 435 l 499 226 l 357 226 m 497 543 l 554 543 b 638 601 588 543 638 544 b 554 660 638 657 588 660 l 497 660 m 39 492 b 556 1008 39 776 271 1008 b 1072 492 840 1008 1072 776 b 556 -25 1072 207 840 -25 b 39 492 271 -25 39 207 m 181 492 b 556 100 181 276 349 100 b 931 492 763 100 931 276 b 556 883 931 707 763 883 b 181 492 349 883 181 707 "},"−":{"ha":925,"x_min":0,"x_max":0,"o":"m 82 508 l 843 508 l 843 333 l 82 333 "},"ð":{"ha":847,"x_min":0,"x_max":0,"o":"m 731 986 l 560 915 b 799 394 647 822 799 658 b 424 -17 799 143 667 -19 b 49 338 215 -17 49 122 b 393 692 49 553 222 692 b 529 656 442 692 492 686 l 532 658 b 378 838 496 710 424 797 l 231 775 l 131 869 l 281 933 b 185 1015 263 953 217 993 l 354 1113 b 465 1013 396 1081 432 1047 l 624 1079 m 257 338 b 424 167 257 236 319 167 b 590 338 528 167 590 236 b 424 508 590 439 528 508 b 257 338 319 508 257 439 "},"×":{"ha":925,"x_min":0,"x_max":0,"o":"m 218 792 l 464 549 l 703 790 l 826 671 l 586 421 l 836 181 l 708 51 l 464 296 l 218 50 l 94 169 l 336 421 l 89 660 "},"³":{"ha":535,"x_min":0,"x_max":0,"o":"m 199 767 l 246 767 b 349 829 299 767 349 776 b 271 875 349 858 318 875 b 182 814 226 875 192 853 l 29 842 b 271 1000 60 960 157 1000 b 499 842 390 1000 499 949 b 383 713 499 776 458 725 l 383 710 b 511 571 464 700 511 639 b 267 393 511 451 399 393 b 24 557 146 393 51 439 l 175 588 b 267 518 185 544 214 518 b 361 585 319 518 361 536 b 233 650 361 649 297 650 l 199 650 "},"©":{"ha":1111,"x_min":0,"x_max":0,"o":"m 817 417 b 569 199 797 274 690 199 b 293 496 394 199 293 329 b 567 788 293 667 389 788 b 817 582 692 788 796 721 l 686 582 b 578 663 674 642 628 663 b 443 499 488 663 443 599 b 575 324 443 396 494 324 b 686 417 633 324 682 349 m 39 492 b 556 1008 39 776 271 1008 b 1072 492 840 1008 1072 776 b 556 -25 1072 207 840 -25 b 39 492 271 -25 39 207 m 181 492 b 556 100 181 276 349 100 b 931 492 763 100 931 276 b 556 883 931 707 763 883 b 181 492 349 883 181 707 "},"Á":{"ha":1029,"x_min":0,"x_max":0,"o":"m 424 983 l 603 983 l 1031 0 l 786 0 l 701 208 l 319 208 l 238 0 l -1 0 m 507 697 l 388 392 l 628 392 m 517 1254 l 800 1254 l 560 1054 l 376 1054 "},"Â":{"ha":1029,"x_min":0,"x_max":0,"o":"m 424 983 l 603 983 l 1031 0 l 786 0 l 701 208 l 319 208 l 238 0 l -1 0 m 507 697 l 388 392 l 628 392 m 600 1054 l 513 1163 l 426 1054 l 239 1054 l 404 1254 l 631 1254 l 792 1054 "},"Ä":{"ha":1029,"x_min":0,"x_max":0,"o":"m 424 983 l 603 983 l 1031 0 l 786 0 l 701 208 l 319 208 l 238 0 l -1 0 m 507 697 l 388 392 l 628 392 m 369 1046 b 254 1165 304 1046 254 1101 b 367 1279 254 1225 306 1279 b 488 1165 431 1279 488 1232 b 369 1046 488 1099 438 1046 m 658 1046 b 543 1165 593 1046 543 1101 b 656 1279 543 1225 594 1279 b 776 1165 719 1279 776 1232 b 658 1046 776 1099 726 1046 "},"À":{"ha":1029,"x_min":0,"x_max":0,"o":"m 424 983 l 603 983 l 1031 0 l 786 0 l 701 208 l 319 208 l 238 0 l -1 0 m 507 697 l 388 392 l 628 392 m 657 1054 l 474 1054 l 233 1254 l 517 1254 "},"Å":{"ha":1029,"x_min":0,"x_max":0,"o":"m 424 983 l 603 983 l 1031 0 l 786 0 l 701 208 l 319 208 l 238 0 l -1 0 m 507 697 l 388 392 l 628 392 m 515 1015 b 361 1169 431 1015 361 1085 b 515 1324 361 1254 431 1324 b 669 1169 600 1324 669 1254 b 515 1015 669 1085 600 1015 m 444 1169 b 515 1099 444 1131 476 1099 b 586 1169 554 1099 586 1131 b 515 1240 586 1208 554 1240 b 444 1169 476 1240 444 1208 "},"Ã":{"ha":1029,"x_min":0,"x_max":0,"o":"m 424 983 l 603 983 l 1031 0 l 786 0 l 701 208 l 319 208 l 238 0 l -1 0 m 507 697 l 388 392 l 628 392 m 243 1063 b 419 1254 258 1156 315 1254 b 540 1225 465 1254 500 1242 b 618 1204 565 1215 590 1204 b 679 1254 650 1204 667 1226 l 788 1254 b 607 1063 769 1149 724 1063 b 499 1092 567 1063 531 1078 b 411 1121 467 1107 439 1121 b 353 1063 379 1121 361 1089 "},"Ç":{"ha":951,"x_min":0,"x_max":0,"o":"m 743 728 b 557 808 700 779 638 808 b 272 492 393 808 272 675 b 550 175 272 308 393 175 b 753 281 638 175 708 214 l 933 146 b 578 -25 851 29 713 -25 b 551 -24 568 -25 560 -25 l 511 -83 b 686 -199 593 -83 686 -96 b 493 -333 686 -300 564 -333 b 319 -292 438 -333 368 -315 l 354 -226 b 461 -250 376 -235 414 -250 b 553 -206 504 -250 553 -242 b 483 -158 553 -172 511 -158 b 433 -169 465 -158 450 -162 l 389 -129 l 464 -15 b 47 492 217 29 47 217 b 578 1008 47 807 271 1008 b 910 864 688 1008 826 971 "},"É":{"ha":875,"x_min":0,"x_max":0,"o":"m 108 983 l 776 983 l 776 783 l 325 783 l 325 600 l 751 600 l 751 400 l 325 400 l 325 200 l 801 200 l 801 0 l 108 0 m 439 1254 l 722 1254 l 482 1054 l 299 1054 "},"Ê":{"ha":875,"x_min":0,"x_max":0,"o":"m 108 983 l 776 983 l 776 783 l 325 783 l 325 600 l 751 600 l 751 400 l 325 400 l 325 200 l 801 200 l 801 0 l 108 0 m 522 1054 l 435 1163 l 349 1054 l 161 1054 l 326 1254 l 553 1254 l 714 1054 "},"Ë":{"ha":875,"x_min":0,"x_max":0,"o":"m 108 983 l 776 983 l 776 783 l 325 783 l 325 600 l 751 600 l 751 400 l 325 400 l 325 200 l 801 200 l 801 0 l 108 0 m 292 1046 b 176 1165 226 1046 176 1101 b 289 1279 176 1225 228 1279 b 410 1165 353 1279 410 1232 b 292 1046 410 1099 360 1046 m 581 1046 b 465 1165 515 1046 465 1101 b 578 1279 465 1225 517 1279 b 699 1165 642 1279 699 1232 b 581 1046 699 1099 649 1046 "},"È":{"ha":875,"x_min":0,"x_max":0,"o":"m 108 983 l 776 983 l 776 783 l 325 783 l 325 600 l 751 600 l 751 400 l 325 400 l 325 200 l 801 200 l 801 0 l 108 0 m 579 1054 l 396 1054 l 156 1254 l 439 1254 "},"Í":{"ha":411,"x_min":0,"x_max":0,"o":"m 97 983 l 314 983 l 314 0 l 97 0 m 207 1254 l 490 1254 l 250 1054 l 67 1054 "},"Î":{"ha":411,"x_min":0,"x_max":0,"o":"m 97 983 l 314 983 l 314 0 l 97 0 m 290 1054 l 203 1163 l 117 1054 l -71 1054 l 94 1254 l 321 1254 l 482 1054 "},"Ï":{"ha":411,"x_min":0,"x_max":0,"o":"m 97 983 l 314 983 l 314 0 l 97 0 m 60 1046 b -56 1165 -6 1046 -56 1101 b 57 1279 -56 1225 -4 1279 b 178 1165 121 1279 178 1232 b 60 1046 178 1099 128 1046 m 349 1046 b 233 1165 283 1046 233 1101 b 346 1279 233 1225 285 1279 b 467 1165 410 1279 467 1232 b 349 1046 467 1099 417 1046 "},"Ì":{"ha":411,"x_min":0,"x_max":0,"o":"m 97 983 l 314 983 l 314 0 l 97 0 m 347 1054 l 164 1054 l -76 1254 l 207 1254 "},"Ñ":{"ha":1132,"x_min":0,"x_max":0,"o":"m 100 983 l 394 983 l 813 300 l 815 300 l 815 983 l 1032 983 l 1032 0 l 749 0 l 319 700 l 317 700 l 317 0 l 100 0 m 294 1063 b 471 1254 310 1156 367 1254 b 592 1225 517 1254 551 1242 b 669 1204 617 1215 642 1204 b 731 1254 701 1204 718 1226 l 839 1254 b 658 1063 821 1149 775 1063 b 550 1092 618 1063 582 1078 b 463 1121 518 1107 490 1121 b 404 1063 431 1121 413 1089 "},"Ó":{"ha":1156,"x_min":0,"x_max":0,"o":"m 47 492 b 578 1008 47 807 271 1008 b 1108 492 885 1008 1108 807 b 578 -25 1108 176 885 -25 b 47 492 271 -25 47 176 m 272 492 b 578 175 272 308 393 175 b 883 492 763 175 883 308 b 578 808 883 675 763 808 b 272 492 393 808 272 675 m 579 1254 l 863 1254 l 622 1054 l 439 1054 "},"Ô":{"ha":1156,"x_min":0,"x_max":0,"o":"m 47 492 b 578 1008 47 807 271 1008 b 1108 492 885 1008 1108 807 b 578 -25 1108 176 885 -25 b 47 492 271 -25 47 176 m 272 492 b 578 175 272 308 393 175 b 883 492 763 175 883 308 b 578 808 883 675 763 808 b 272 492 393 808 272 675 m 663 1054 l 575 1163 l 489 1054 l 301 1054 l 467 1254 l 693 1254 l 854 1054 "},"Ö":{"ha":1156,"x_min":0,"x_max":0,"o":"m 47 492 b 578 1008 47 807 271 1008 b 1108 492 885 1008 1108 807 b 578 -25 1108 176 885 -25 b 47 492 271 -25 47 176 m 272 492 b 578 175 272 308 393 175 b 883 492 763 175 883 308 b 578 808 883 675 763 808 b 272 492 393 808 272 675 m 432 1046 b 317 1165 367 1046 317 1101 b 429 1279 317 1225 368 1279 b 550 1165 493 1279 550 1232 b 432 1046 550 1099 500 1046 m 721 1046 b 606 1165 656 1046 606 1101 b 718 1279 606 1225 657 1279 b 839 1165 782 1279 839 1232 b 721 1046 839 1099 789 1046 "},"Ò":{"ha":1156,"x_min":0,"x_max":0,"o":"m 47 492 b 578 1008 47 807 271 1008 b 1108 492 885 1008 1108 807 b 578 -25 1108 176 885 -25 b 47 492 271 -25 47 176 m 272 492 b 578 175 272 308 393 175 b 883 492 763 175 883 308 b 578 808 883 675 763 808 b 272 492 393 808 272 675 m 719 1054 l 536 1054 l 296 1254 l 579 1254 "},"Õ":{"ha":1156,"x_min":0,"x_max":0,"o":"m 47 492 b 578 1008 47 807 271 1008 b 1108 492 885 1008 1108 807 b 578 -25 1108 176 885 -25 b 47 492 271 -25 47 176 m 272 492 b 578 175 272 308 393 175 b 883 492 763 175 883 308 b 578 808 883 675 763 808 b 272 492 393 808 272 675 m 306 1063 b 482 1254 321 1156 378 1254 b 603 1225 528 1254 563 1242 b 681 1204 628 1215 653 1204 b 742 1254 713 1204 729 1226 l 850 1254 b 669 1063 832 1149 786 1063 b 561 1092 629 1063 593 1078 b 474 1121 529 1107 501 1121 b 415 1063 442 1121 424 1089 "},"Š":{"ha":797,"x_min":0,"x_max":0,"o":"m 586 743 b 429 808 551 788 482 808 b 283 707 368 808 283 781 b 736 299 283 528 736 643 b 357 -25 736 79 560 -25 b 26 99 231 -25 119 13 l 181 268 b 369 175 225 210 297 175 b 519 278 440 175 519 208 b 58 689 519 458 58 361 b 433 1008 58 899 240 1008 b 735 906 544 1008 651 979 m 308 1292 l 396 1183 l 482 1292 l 669 1292 l 504 1092 l 278 1092 l 117 1292 "},"Ú":{"ha":1029,"x_min":0,"x_max":0,"o":"m 929 379 b 515 -25 929 147 788 -25 b 100 379 242 -25 100 147 l 100 983 l 317 983 l 317 388 b 515 175 317 267 400 175 b 713 388 629 175 713 267 l 713 983 l 929 983 m 517 1254 l 800 1254 l 560 1054 l 376 1054 "},"Û":{"ha":1029,"x_min":0,"x_max":0,"o":"m 929 379 b 515 -25 929 147 788 -25 b 100 379 242 -25 100 147 l 100 983 l 317 983 l 317 388 b 515 175 317 267 400 175 b 713 388 629 175 713 267 l 713 983 l 929 983 m 600 1054 l 513 1163 l 426 1054 l 239 1054 l 404 1254 l 631 1254 l 792 1054 "},"Ü":{"ha":1029,"x_min":0,"x_max":0,"o":"m 929 379 b 515 -25 929 147 788 -25 b 100 379 242 -25 100 147 l 100 983 l 317 983 l 317 388 b 515 175 317 267 400 175 b 713 388 629 175 713 267 l 713 983 l 929 983 m 369 1046 b 254 1165 304 1046 254 1101 b 367 1279 254 1225 306 1279 b 488 1165 431 1279 488 1232 b 369 1046 488 1099 438 1046 m 658 1046 b 543 1165 593 1046 543 1101 b 656 1279 543 1225 594 1279 b 776 1165 719 1279 776 1232 b 658 1046 776 1099 726 1046 "},"Ù":{"ha":1029,"x_min":0,"x_max":0,"o":"m 929 379 b 515 -25 929 147 788 -25 b 100 379 242 -25 100 147 l 100 983 l 317 983 l 317 388 b 515 175 317 267 400 175 b 713 388 629 175 713 267 l 713 983 l 929 983 m 657 1054 l 474 1054 l 233 1254 l 517 1254 "},"Ý":{"ha":900,"x_min":0,"x_max":0,"o":"m 342 419 l -28 983 l 242 983 l 450 615 l 671 983 l 928 983 l 558 419 l 558 0 l 342 0 m 451 1292 l 735 1292 l 494 1092 l 311 1092 "},"Ÿ":{"ha":900,"x_min":0,"x_max":0,"o":"m 342 419 l -28 983 l 242 983 l 450 615 l 671 983 l 928 983 l 558 419 l 558 0 l 342 0 m 304 1083 b 189 1203 239 1083 189 1139 b 301 1317 189 1263 240 1317 b 422 1203 365 1317 422 1269 b 304 1083 422 1136 372 1083 m 593 1083 b 478 1203 528 1083 478 1139 b 590 1317 478 1263 529 1317 b 711 1203 654 1317 711 1269 b 593 1083 711 1136 661 1083 "},"Ž":{"ha":875,"x_min":0,"x_max":0,"o":"m 49 200 l 547 792 l 67 792 l 67 983 l 810 983 l 810 792 l 321 200 l 826 200 l 826 0 l 49 0 m 347 1292 l 435 1183 l 521 1292 l 708 1292 l 543 1092 l 317 1092 l 156 1292 "},"á":{"ha":746,"x_min":0,"x_max":0,"o":"m 497 85 l 494 85 b 281 -17 449 13 365 -17 b 40 192 154 -17 40 56 b 497 429 40 425 324 429 b 364 550 497 503 436 550 b 194 469 296 550 239 519 l 83 583 b 381 692 160 656 271 692 b 689 343 624 692 689 568 l 689 0 l 497 0 m 446 296 b 240 199 382 296 240 290 b 339 125 240 149 293 125 b 497 251 421 125 497 168 l 497 296 m 375 983 l 658 983 l 418 783 l 235 783 "},"â":{"ha":746,"x_min":0,"x_max":0,"o":"m 497 85 l 494 85 b 281 -17 449 13 365 -17 b 40 192 154 -17 40 56 b 497 429 40 425 324 429 b 364 550 497 503 436 550 b 194 469 296 550 239 519 l 83 583 b 381 692 160 656 271 692 b 689 343 624 692 689 568 l 689 0 l 497 0 m 446 296 b 240 199 382 296 240 290 b 339 125 240 149 293 125 b 497 251 421 125 497 168 l 497 296 m 458 783 l 371 892 l 285 783 l 97 783 l 263 983 l 489 983 l 650 783 "},"ä":{"ha":746,"x_min":0,"x_max":0,"o":"m 497 85 l 494 85 b 281 -17 449 13 365 -17 b 40 192 154 -17 40 56 b 497 429 40 425 324 429 b 364 550 497 503 436 550 b 194 469 296 550 239 519 l 83 583 b 381 692 160 656 271 692 b 689 343 624 692 689 568 l 689 0 l 497 0 m 446 296 b 240 199 382 296 240 290 b 339 125 240 149 293 125 b 497 251 421 125 497 168 l 497 296 m 228 775 b 113 894 163 775 113 831 b 225 1008 113 954 164 1008 b 346 894 289 1008 346 961 b 228 775 346 828 296 775 m 517 775 b 401 894 451 775 401 831 b 514 1008 401 954 453 1008 b 635 894 578 1008 635 961 b 517 775 635 828 585 775 "},"à":{"ha":746,"x_min":0,"x_max":0,"o":"m 497 85 l 494 85 b 281 -17 449 13 365 -17 b 40 192 154 -17 40 56 b 497 429 40 425 324 429 b 364 550 497 503 436 550 b 194 469 296 550 239 519 l 83 583 b 381 692 160 656 271 692 b 689 343 624 692 689 568 l 689 0 l 497 0 m 446 296 b 240 199 382 296 240 290 b 339 125 240 149 293 125 b 497 251 421 125 497 168 l 497 296 m 515 783 l 332 783 l 92 983 l 375 983 "},"å":{"ha":746,"x_min":0,"x_max":0,"o":"m 497 85 l 494 85 b 281 -17 449 13 365 -17 b 40 192 154 -17 40 56 b 497 429 40 425 324 429 b 364 550 497 503 436 550 b 194 469 296 550 239 519 l 83 583 b 381 692 160 656 271 692 b 689 343 624 692 689 568 l 689 0 l 497 0 m 446 296 b 240 199 382 296 240 290 b 339 125 240 149 293 125 b 497 251 421 125 497 168 l 497 296 m 374 757 b 219 911 289 757 219 826 b 374 1065 219 996 289 1065 b 528 911 458 1065 528 996 b 374 757 528 826 458 757 m 303 911 b 374 840 303 872 335 840 b 444 911 413 840 444 872 b 374 982 444 950 413 982 b 303 911 335 982 303 950 "},"ã":{"ha":746,"x_min":0,"x_max":0,"o":"m 497 85 l 494 85 b 281 -17 449 13 365 -17 b 40 192 154 -17 40 56 b 497 429 40 425 324 429 b 364 550 497 503 436 550 b 194 469 296 550 239 519 l 83 583 b 381 692 160 656 271 692 b 689 343 624 692 689 568 l 689 0 l 497 0 m 446 296 b 240 199 382 296 240 290 b 339 125 240 149 293 125 b 497 251 421 125 497 168 l 497 296 m 101 792 b 278 983 117 885 174 983 b 399 954 324 983 358 971 b 476 933 424 944 449 933 b 538 983 508 933 525 956 l 646 983 b 465 792 628 878 582 792 b 357 821 425 792 389 807 b 269 850 325 836 297 850 b 211 792 238 850 219 818 "},"ç":{"ha":669,"x_min":0,"x_max":0,"o":"m 531 457 b 428 508 510 486 471 508 b 261 338 324 508 261 439 b 428 167 261 236 324 167 b 531 218 474 167 507 190 l 668 74 b 428 -17 603 7 507 -17 b 415 -15 424 -17 418 -17 l 369 -83 b 544 -199 451 -83 544 -96 b 351 -333 544 -300 422 -333 b 178 -292 296 -333 226 -315 l 213 -226 b 319 -250 235 -235 272 -250 b 411 -206 363 -250 411 -242 b 342 -158 411 -172 369 -158 b 292 -169 324 -158 308 -162 l 247 -129 l 331 -4 b 53 338 169 31 53 157 b 428 692 53 553 219 692 b 668 601 507 692 603 668 "},"é":{"ha":797,"x_min":0,"x_max":0,"o":"m 713 117 b 428 -17 646 32 536 -17 b 53 338 219 -17 53 122 b 428 692 53 553 219 692 b 744 338 622 692 744 553 l 744 272 l 261 272 b 418 142 278 193 338 142 b 567 224 486 142 532 176 m 536 414 b 408 542 538 483 483 542 b 261 414 317 542 267 479 m 400 983 l 683 983 l 443 783 l 260 783 "},"ê":{"ha":797,"x_min":0,"x_max":0,"o":"m 713 117 b 428 -17 646 32 536 -17 b 53 338 219 -17 53 122 b 428 692 53 553 219 692 b 744 338 622 692 744 553 l 744 272 l 261 272 b 418 142 278 193 338 142 b 567 224 486 142 532 176 m 536 414 b 408 542 538 483 483 542 b 261 414 317 542 267 479 m 483 783 l 396 892 l 310 783 l 122 783 l 288 983 l 514 983 l 675 783 "},"ë":{"ha":797,"x_min":0,"x_max":0,"o":"m 713 117 b 428 -17 646 32 536 -17 b 53 338 219 -17 53 122 b 428 692 53 553 219 692 b 744 338 622 692 744 553 l 744 272 l 261 272 b 418 142 278 193 338 142 b 567 224 486 142 532 176 m 536 414 b 408 542 538 483 483 542 b 261 414 317 542 267 479 m 253 775 b 138 894 188 775 138 831 b 250 1008 138 954 189 1008 b 371 894 314 1008 371 961 b 253 775 371 828 321 775 m 542 775 b 426 894 476 775 426 831 b 539 1008 426 954 478 1008 b 660 894 603 1008 660 961 b 542 775 660 828 610 775 "},"è":{"ha":797,"x_min":0,"x_max":0,"o":"m 713 117 b 428 -17 646 32 536 -17 b 53 338 219 -17 53 122 b 428 692 53 553 219 692 b 744 338 622 692 744 553 l 744 272 l 261 272 b 418 142 278 193 338 142 b 567 224 486 142 532 176 m 536 414 b 408 542 538 483 483 542 b 261 414 317 542 267 479 m 540 783 l 357 783 l 117 983 l 400 983 "},"í":{"ha":361,"x_min":0,"x_max":0,"o":"m 76 675 l 285 675 l 285 0 l 76 0 m 182 983 l 465 983 l 225 783 l 42 783 "},"î":{"ha":361,"x_min":0,"x_max":0,"o":"m 76 675 l 285 675 l 285 0 l 76 0 m 265 783 l 178 892 l 92 783 l -96 783 l 69 983 l 296 983 l 457 783 "},"ï":{"ha":361,"x_min":0,"x_max":0,"o":"m 76 675 l 285 675 l 285 0 l 76 0 m 35 775 b -81 894 -31 775 -81 831 b 32 1008 -81 954 -29 1008 b 153 894 96 1008 153 961 b 35 775 153 828 103 775 m 324 775 b 208 894 258 775 208 831 b 321 1008 208 954 260 1008 b 442 894 385 1008 442 961 b 324 775 442 828 392 775 "},"ì":{"ha":361,"x_min":0,"x_max":0,"o":"m 76 675 l 285 675 l 285 0 l 76 0 m 322 783 l 139 783 l -101 983 l 182 983 "},"ñ":{"ha":797,"x_min":0,"x_max":0,"o":"m 74 675 l 274 675 l 274 583 l 276 583 b 474 692 304 636 372 692 b 724 372 685 692 724 553 l 724 0 l 515 0 l 515 331 b 407 508 515 408 514 508 b 282 336 299 508 282 424 l 282 0 l 74 0 m 126 792 b 303 983 142 885 199 983 b 424 954 349 983 383 971 b 501 933 449 944 474 933 b 563 983 533 933 550 956 l 671 983 b 490 792 653 878 607 792 b 382 821 450 792 414 807 b 294 850 350 836 322 850 b 236 792 263 850 244 818 "},"ó":{"ha":847,"x_min":0,"x_max":0,"o":"m 49 338 b 424 692 49 553 215 692 b 799 338 632 692 799 553 b 424 -17 799 122 632 -17 b 49 338 215 -17 49 122 m 257 338 b 424 167 257 236 319 167 b 590 338 528 167 590 236 b 424 508 590 439 528 508 b 257 338 319 508 257 439 m 425 983 l 708 983 l 468 783 l 285 783 "},"ô":{"ha":847,"x_min":0,"x_max":0,"o":"m 49 338 b 424 692 49 553 215 692 b 799 338 632 692 799 553 b 424 -17 799 122 632 -17 b 49 338 215 -17 49 122 m 257 338 b 424 167 257 236 319 167 b 590 338 528 167 590 236 b 424 508 590 439 528 508 b 257 338 319 508 257 439 m 508 783 l 421 892 l 335 783 l 147 783 l 313 983 l 539 983 l 700 783 "},"ö":{"ha":847,"x_min":0,"x_max":0,"o":"m 49 338 b 424 692 49 553 215 692 b 799 338 632 692 799 553 b 424 -17 799 122 632 -17 b 49 338 215 -17 49 122 m 257 338 b 424 167 257 236 319 167 b 590 338 528 167 590 236 b 424 508 590 439 528 508 b 257 338 319 508 257 439 m 278 775 b 163 894 213 775 163 831 b 275 1008 163 954 214 1008 b 396 894 339 1008 396 961 b 278 775 396 828 346 775 m 567 775 b 451 894 501 775 451 831 b 564 1008 451 954 503 1008 b 685 894 628 1008 685 961 b 567 775 685 828 635 775 "},"ò":{"ha":847,"x_min":0,"x_max":0,"o":"m 49 338 b 424 692 49 553 215 692 b 799 338 632 692 799 553 b 424 -17 799 122 632 -17 b 49 338 215 -17 49 122 m 257 338 b 424 167 257 236 319 167 b 590 338 528 167 590 236 b 424 508 590 439 528 508 b 257 338 319 508 257 439 m 565 783 l 382 783 l 142 983 l 425 983 "},"õ":{"ha":847,"x_min":0,"x_max":0,"o":"m 49 338 b 424 692 49 553 215 692 b 799 338 632 692 799 553 b 424 -17 799 122 632 -17 b 49 338 215 -17 49 122 m 257 338 b 424 167 257 236 319 167 b 590 338 528 167 590 236 b 424 508 590 439 528 508 b 257 338 319 508 257 439 m 151 792 b 328 983 167 885 224 983 b 449 954 374 983 408 971 b 526 933 474 944 499 933 b 588 983 558 933 575 956 l 696 983 b 515 792 678 878 632 792 b 407 821 475 792 439 807 b 319 850 375 836 347 850 b 261 792 288 850 269 818 "},"š":{"ha":643,"x_min":0,"x_max":0,"o":"m 456 476 b 335 533 425 514 385 533 b 258 478 300 533 258 518 b 610 206 258 378 610 463 b 299 -17 610 33 443 -17 b 33 75 204 -17 100 7 l 160 215 b 307 142 199 168 244 142 b 401 190 354 142 401 154 b 50 464 401 299 50 207 b 333 692 50 622 192 692 b 583 603 422 692 521 669 m 232 983 l 319 875 l 406 983 l 593 983 l 428 783 l 201 783 l 40 983 "},"ú":{"ha":797,"x_min":0,"x_max":0,"o":"m 724 0 l 524 0 l 524 92 l 521 92 b 324 -17 493 39 425 -17 b 74 303 113 -17 74 122 l 74 675 l 282 675 l 282 344 b 390 167 282 267 283 167 b 515 339 499 167 515 251 l 515 675 l 724 675 m 400 983 l 683 983 l 443 783 l 260 783 "},"û":{"ha":797,"x_min":0,"x_max":0,"o":"m 724 0 l 524 0 l 524 92 l 521 92 b 324 -17 493 39 425 -17 b 74 303 113 -17 74 122 l 74 675 l 282 675 l 282 344 b 390 167 282 267 283 167 b 515 339 499 167 515 251 l 515 675 l 724 675 m 483 783 l 396 892 l 310 783 l 122 783 l 288 983 l 514 983 l 675 783 "},"ü":{"ha":797,"x_min":0,"x_max":0,"o":"m 724 0 l 524 0 l 524 92 l 521 92 b 324 -17 493 39 425 -17 b 74 303 113 -17 74 122 l 74 675 l 282 675 l 282 344 b 390 167 282 267 283 167 b 515 339 499 167 515 251 l 515 675 l 724 675 m 253 775 b 138 894 188 775 138 831 b 250 1008 138 954 189 1008 b 371 894 314 1008 371 961 b 253 775 371 828 321 775 m 542 775 b 426 894 476 775 426 831 b 539 1008 426 954 478 1008 b 660 894 603 1008 660 961 b 542 775 660 828 610 775 "},"ù":{"ha":797,"x_min":0,"x_max":0,"o":"m 724 0 l 524 0 l 524 92 l 521 92 b 324 -17 493 39 425 -17 b 74 303 113 -17 74 122 l 74 675 l 282 675 l 282 344 b 390 167 282 267 283 167 b 515 339 499 167 515 251 l 515 675 l 724 675 m 540 783 l 357 783 l 117 983 l 400 983 "},"ý":{"ha":772,"x_min":0,"x_max":0,"o":"m 463 -110 b 176 -333 407 -253 375 -333 b 21 -308 124 -333 71 -325 l 49 -137 b 146 -158 81 -151 111 -158 b 285 -44 240 -158 256 -118 l 300 -6 l 4 675 l 229 675 l 403 229 l 406 229 l 554 675 l 768 675 m 388 983 l 671 983 l 431 783 l 247 783 "},"ÿ":{"ha":772,"x_min":0,"x_max":0,"o":"m 463 -110 b 176 -333 407 -253 375 -333 b 21 -308 124 -333 71 -325 l 49 -137 b 146 -158 81 -151 111 -158 b 285 -44 240 -158 256 -118 l 300 -6 l 4 675 l 229 675 l 403 229 l 406 229 l 554 675 l 768 675 m 240 775 b 125 894 175 775 125 831 b 238 1008 125 954 176 1008 b 358 894 301 1008 358 961 b 240 775 358 828 308 775 m 529 775 b 414 894 464 775 414 831 b 526 1008 414 954 465 1008 b 647 894 590 1008 647 961 b 529 775 647 828 597 775 "},"ž":{"ha":694,"x_min":0,"x_max":0,"o":"m 47 208 l 397 508 l 56 508 l 56 675 l 639 675 l 639 475 l 272 167 l 647 167 l 647 0 l 47 0 m 257 983 l 344 875 l 431 983 l 618 983 l 453 783 l 226 783 l 65 983 "},"∆":{"ha":963,"x_min":0,"x_max":0,"o":"m 38 108 l 371 1001 l 600 1001 l 924 110 l 924 0 l 38 0 m 715 151 l 560 558 b 479 806 538 632 496 746 l 475 806 b 401 579 463 758 424 654 l 236 151 "},"Ω":{"ha":1043,"x_min":0,"x_max":0,"o":"m 253 156 b 75 544 165 233 75 365 b 525 994 75 789 256 994 b 967 553 811 994 967 763 b 785 156 967 372 878 235 l 785 151 l 986 151 l 986 0 l 593 0 l 593 113 b 772 513 686 171 772 293 b 524 840 772 685 685 840 b 269 506 371 840 269 699 b 449 113 269 306 353 167 l 449 0 l 54 0 l 54 151 l 253 151 "},"μ":{"ha":797,"x_min":0,"x_max":0,"o":"m 724 0 l 524 0 l 524 92 l 521 92 b 324 -17 493 39 425 -17 b 282 -12 308 -17 294 -15 l 282 -317 l 74 -317 l 74 675 l 282 675 l 282 344 b 390 167 282 267 283 167 b 515 339 499 167 515 251 l 515 675 l 724 675 "},"π":{"ha":885,"x_min":0,"x_max":0,"o":"m 747 578 l 747 214 b 767 0 747 110 756 44 l 581 0 b 556 204 563 29 556 104 l 556 578 l 358 578 b 267 0 351 425 317 140 l 81 0 b 169 578 128 161 167 425 b 26 564 101 578 58 574 l 6 688 b 247 736 42 717 119 736 l 864 736 l 850 578 "},"€":{"ha":822,"x_min":0,"x_max":0,"o":"m 689 244 b 522 164 650 196 599 164 b 343 308 428 164 371 218 l 565 308 l 606 433 l 322 433 b 321 461 321 443 321 451 l 321 490 b 324 553 321 513 322 532 l 638 553 l 679 681 l 353 681 b 560 814 393 775 465 814 b 711 779 625 814 683 797 l 775 960 b 560 1000 738 982 624 1000 b 133 681 338 1000 189 890 l 61 681 l 18 553 l 113 553 b 110 485 111 531 110 508 l 110 458 b 111 433 110 450 110 442 l 53 433 l 14 308 l 126 308 b 503 -17 169 97 296 -17 b 803 104 626 -17 742 32 "},"ℓ":{"ha":758,"x_min":0,"x_max":0,"o":"m 731 189 b 421 -12 653 40 538 -12 b 157 214 250 -12 175 90 b 156 229 157 219 157 224 b 82 174 132 211 108 190 l 33 272 b 154 369 76 307 117 336 l 154 714 b 418 1078 154 968 271 1078 b 628 826 563 1078 628 964 b 338 339 628 658 517 504 l 339 285 b 465 140 342 190 396 140 b 653 269 544 140 611 204 m 338 510 b 504 831 435 618 504 735 b 426 946 504 901 483 946 b 338 725 385 946 338 897 "},"℮":{"ha":1226,"x_min":0,"x_max":0,"o":"m 263 478 b 256 471 258 478 256 476 l 256 194 b 267 163 256 183 260 172 b 613 13 356 71 478 13 b 976 181 758 13 888 79 l 1058 181 b 611 -15 957 63 793 -15 b 47 492 300 -15 47 211 b 611 1000 47 772 300 1000 b 1176 492 924 1000 1176 772 l 1176 478 m 969 792 b 956 825 969 804 965 815 b 613 969 867 913 747 969 b 268 821 479 969 357 911 b 256 786 260 811 256 799 l 256 514 b 263 504 256 511 258 504 l 964 504 b 969 514 968 504 969 511 "},"∂":{"ha":842,"x_min":0,"x_max":0,"o":"m 94 1024 b 367 1107 139 1057 226 1107 b 774 569 586 1107 774 921 b 360 -11 774 225 618 -11 b 53 324 150 -11 53 176 b 368 690 53 547 192 690 b 585 575 489 690 563 611 l 586 575 b 588 621 588 586 588 610 b 342 953 588 796 492 953 b 149 886 251 953 186 914 m 379 144 b 568 422 486 144 553 294 b 408 542 556 465 497 542 b 242 318 310 542 242 436 b 378 144 242 222 296 144 "},"∏":{"ha":1054,"x_min":0,"x_max":0,"o":"m 869 810 l 869 -135 l 682 -135 l 682 810 l 371 810 l 371 -135 l 183 -135 l 183 810 l 33 810 l 33 979 l 1019 979 l 1019 810 "},"∑":{"ha":817,"x_min":0,"x_max":0,"o":"m 32 -135 l 32 -17 l 382 422 l 46 849 l 46 979 l 767 979 l 767 819 l 303 819 l 303 814 l 596 451 l 272 42 l 272 38 l 790 38 l 790 -135 "},"∙":{"ha":411,"x_min":0,"x_max":0,"o":"m 78 393 b 206 521 78 464 135 521 b 333 393 276 521 333 464 b 206 265 333 322 276 265 b 78 393 135 265 78 322 "},"√":{"ha":867,"x_min":0,"x_max":0,"o":"m 553 -197 l 401 -197 l 183 414 l 76 371 l 44 474 l 296 576 l 447 129 b 476 8 457 86 468 42 l 478 7 b 501 138 483 39 492 89 l 749 1175 l 882 1175 "},"∞":{"ha":1115,"x_min":0,"x_max":0,"o":"m 1046 404 b 815 154 1046 247 933 154 b 558 317 733 154 654 190 b 294 154 485 225 410 154 b 68 397 175 154 68 253 b 307 643 68 542 171 643 b 564 485 414 643 490 581 b 824 643 624 551 696 644 b 1046 406 949 643 1046 549 m 310 257 b 503 392 389 257 449 328 b 303 543 444 471 394 543 b 172 396 222 543 172 481 b 307 257 172 319 231 257 m 811 543 b 617 401 725 543 661 454 b 818 257 703 294 747 257 b 942 396 897 257 942 333 b 813 543 942 482 890 543 "},"∫":{"ha":569,"x_min":0,"x_max":0,"o":"m 522 1068 b 469 1081 508 1075 490 1081 b 397 1044 442 1081 415 1069 b 358 811 367 1006 358 926 b 381 140 358 582 381 394 b 328 -139 381 8 360 -83 b 140 -244 289 -215 213 -244 b 26 -221 94 -244 49 -232 l 50 -89 b 113 -104 64 -94 86 -104 b 176 -76 136 -104 161 -96 b 217 140 203 -42 217 15 b 194 829 217 397 194 589 b 282 1147 194 993 219 1083 b 453 1213 324 1193 390 1213 b 542 1196 489 1213 525 1203 "},"≈":{"ha":799,"x_min":0,"x_max":0,"o":"m 742 578 b 544 432 694 490 625 432 b 382 489 485 432 446 450 b 257 536 340 514 304 536 b 121 433 193 536 157 485 l 53 496 b 265 642 96 579 176 642 b 418 590 335 642 381 611 b 544 539 471 558 500 539 b 675 642 600 539 636 579 m 742 310 b 543 163 694 224 626 163 b 382 219 485 163 444 183 b 257 268 338 246 304 268 b 121 164 193 268 157 217 l 53 228 b 265 374 96 310 176 374 b 418 322 335 374 381 343 b 543 271 463 297 496 271 b 675 372 600 271 633 310 "},"≠":{"ha":799,"x_min":0,"x_max":0,"o":"m 533 601 l 729 601 l 729 493 l 492 493 l 407 301 l 729 301 l 729 194 l 364 194 l 292 31 l 207 67 l 264 194 l 69 194 l 69 301 l 306 301 l 390 493 l 69 493 l 69 601 l 432 601 l 503 761 l 589 726 "},"≤":{"ha":799,"x_min":0,"x_max":0,"o":"m 76 458 l 76 575 l 725 892 l 725 767 l 185 519 l 185 517 l 725 267 l 725 142 m 71 -21 l 71 89 l 731 89 l 731 -21 "},"≥":{"ha":799,"x_min":0,"x_max":0,"o":"m 728 575 l 728 458 l 79 142 l 79 267 l 618 515 l 618 519 l 78 767 l 78 892 m 72 -21 l 72 89 l 728 89 l 728 -21 "},"◊":{"ha":865,"x_min":0,"x_max":0,"o":"m 504 -71 l 354 -71 l 71 489 l 360 1049 l 511 1049 l 794 489 m 463 818 b 435 899 451 843 440 875 l 431 899 b 403 818 424 874 414 844 l 238 493 l 404 154 b 429 78 415 128 425 96 l 435 78 b 460 151 440 97 453 138 l 628 485 "}," ":{"ha":411,"x_min":0,"x_max":0,"o":""},"­":{"ha":411,"x_min":0,"x_max":0,"o":"m 376 263 l 35 263 l 35 429 l 376 429 "},"ˉ":{"ha":361,"x_min":0,"x_max":0,"o":"m 417 821 l -56 821 l -56 954 l 417 954 "},"Ω":{"ha":1043,"x_min":0,"x_max":0,"o":"m 253 156 b 75 544 165 233 75 365 b 525 994 75 789 256 994 b 967 553 811 994 967 763 b 785 156 967 372 878 235 l 785 151 l 986 151 l 986 0 l 593 0 l 593 113 b 772 513 686 171 772 293 b 524 840 772 685 685 840 b 269 506 371 840 269 699 b 449 113 269 306 353 167 l 449 0 l 54 0 l 54 151 l 253 151 "},"∕":{"ha":232,"x_min":0,"x_max":0,"o":"m 339 1028 l 456 963 l -118 -44 l -224 15 "}}}
